<svg width="498" height="92" viewBox="0 0 498 92" fill="none" xmlns="http://www.w3.org/2000/svg">
<path d="M7.47 58.088V31.943L2.49 23.809V23.145H28.22V23.809L23.24 31.943V59.914C23.24 70.538 28.22 75.518 36.188 75.518C44.156 75.518 49.136 70.538 49.136 59.914V32.026L42.081 23.809V23.145H58.681V23.809L52.788 32.026V59.914C52.788 72.281 46.48 80.996 30.959 80.996C15.355 80.996 7.47 72.281 7.47 58.088ZM69.2058 71.451L82.3198 50.535L70.7828 31.694L64.1428 23.643V23.145H92.5288V23.643L88.5448 31.03L98.0898 46.634L107.386 31.528L103.153 23.643V23.145H118.176V23.643L111.536 31.694L100.165 49.871L113.362 71.451L120.002 79.502V80H91.6158V79.502L95.5998 72.115L84.3948 53.855L73.4388 71.617L77.6718 79.502V80H62.5658V79.502L69.2058 71.451ZM146.511 58.088V31.943L141.531 23.809V23.145H167.261V23.809L162.281 31.943V59.914C162.281 70.538 167.261 75.518 175.229 75.518C183.197 75.518 188.177 70.538 188.177 59.914V32.026L181.122 23.809V23.145H197.722V23.809L191.829 32.026V59.914C191.829 72.281 185.521 80.996 170 80.996C154.396 80.996 146.511 72.281 146.511 58.088ZM210.156 31.611L204.346 23.643V23.145H231.321V23.643L225.511 31.611V71.534L231.321 79.502V80H204.346V79.502L210.156 71.534V31.611Z" fill="white"/>
<path d="M248.35 55.23V28.412H237.862V22.8H264.542V28.412H253.916V55.23H248.35ZM283.059 29.056C281.357 29.056 279.977 27.63 279.977 25.928C279.977 24.226 281.357 22.8 283.059 22.8C284.761 22.8 286.187 24.226 286.187 25.928C286.187 27.63 284.761 29.056 283.059 29.056ZM285.681 55.046H280.391V30.39H285.681V55.046ZM323.155 30.39C327.847 30.39 331.665 34.208 331.665 38.854V55.046H326.283V38.854C326.283 37.152 324.857 35.772 323.155 35.772C321.453 35.772 320.073 37.152 320.073 38.854V55.046H314.691V38.854C314.691 37.152 313.265 35.772 311.563 35.772C309.861 35.772 308.481 37.152 308.481 38.854V55.046H303.099V38.854C303.099 34.208 306.871 30.39 311.563 30.39C313.817 30.39 315.841 31.264 317.359 32.69C318.877 31.264 320.947 30.39 323.155 30.39ZM371.073 44.558H353.547C354.191 47.686 356.721 49.986 359.711 49.986C361.965 49.986 363.943 48.698 365.047 46.72H370.613C369.141 51.596 364.817 55.138 359.711 55.138C353.363 55.138 348.257 49.664 348.257 42.948C348.257 36.232 353.363 30.758 359.711 30.758C364.817 30.758 369.141 34.3 370.613 39.176C370.981 40.372 371.165 41.614 371.165 42.948C371.165 43.5 371.165 44.006 371.073 44.558ZM354.375 39.176H365.047C363.943 37.198 361.965 35.91 359.711 35.91C357.457 35.91 355.479 37.198 354.375 39.176ZM393.267 55.046H387.977V22.8H393.267V55.046ZM413.854 29.056C412.152 29.056 410.772 27.63 410.772 25.928C410.772 24.226 412.152 22.8 413.854 22.8C415.556 22.8 416.982 24.226 416.982 25.928C416.982 27.63 415.556 29.056 413.854 29.056ZM416.476 55.046H411.186V30.39H416.476V55.046ZM445.526 30.39C451.874 30.39 457.118 35.91 457.118 42.672V55H451.736V42.672C451.736 38.854 448.93 35.772 445.526 35.772C442.076 35.772 439.27 38.854 439.27 42.672V55.046H433.934V42.718C433.934 35.91 439.132 30.39 445.526 30.39ZM496.253 44.558H478.727C479.371 47.686 481.901 49.986 484.891 49.986C487.145 49.986 489.123 48.698 490.227 46.72H495.792C494.321 51.596 489.997 55.138 484.891 55.138C478.543 55.138 473.437 49.664 473.437 42.948C473.437 36.232 478.543 30.758 484.891 30.758C489.997 30.758 494.321 34.3 495.792 39.176C496.161 40.372 496.345 41.614 496.345 42.948C496.345 43.5 496.345 44.006 496.253 44.558ZM479.555 39.176H490.227C489.123 37.198 487.145 35.91 484.891 35.91C482.637 35.91 480.659 37.198 479.555 39.176Z" fill="white"/>
<g clip-path="url(#clip0_103_21)">
<path d="M246.48 79.9999L247.62 65.8799H249.7L252.94 73.5199C253.26 74.2999 253.64 75.4199 253.64 75.4199H253.68C253.68 75.4199 254.06 74.2999 254.38 73.5199L257.62 65.8799H259.7L260.84 79.9999H258.88L258.18 71.0999C258.12 70.2399 258.16 69.0199 258.16 69.0199H258.12C258.12 69.0199 257.7 70.3199 257.36 71.0999L254.54 77.4599H252.78L249.98 71.0999C249.66 70.3399 249.22 68.9799 249.22 68.9799H249.18C249.18 68.9799 249.2 70.2399 249.14 71.0999L248.46 79.9999H246.48ZM266.024 77.1599C266.024 73.8199 270.424 73.6799 272.124 73.6799H272.564V73.4999C272.564 71.8399 271.624 71.2799 270.344 71.2799C268.784 71.2799 267.524 72.2599 267.524 72.2599L266.724 70.8399C266.724 70.8399 268.184 69.6399 270.504 69.6399C273.064 69.6399 274.504 71.0399 274.504 73.5999V79.9999H272.704V79.0399C272.704 78.5799 272.744 78.2399 272.744 78.2399H272.704C272.704 78.2399 271.884 80.2399 269.464 80.2399C267.724 80.2399 266.024 79.1799 266.024 77.1599ZM267.984 77.0599C267.984 77.8799 268.624 78.6799 269.884 78.6799C271.524 78.6799 272.584 76.9599 272.584 75.4599V75.1399H272.084C270.624 75.1399 267.984 75.2399 267.984 77.0599ZM280.772 76.2999V71.5799H279.452V70.0199H280.832V67.0999H282.712V70.0199H285.152V71.5799H282.712V76.0799C282.712 78.0999 284.132 78.3599 284.872 78.3599C285.152 78.3599 285.332 78.3199 285.332 78.3199V80.0399C285.332 80.0399 285.052 80.0799 284.652 80.0799C283.352 80.0799 280.772 79.6799 280.772 76.2999ZM290.52 79.9999V65.8799H292.46V71.0599C292.46 71.5399 292.42 71.8999 292.42 71.8999H292.46C292.9 70.9199 294.18 69.6399 296.2 69.6399C298.58 69.6399 299.68 70.9399 299.68 73.5199V79.9999H297.74V73.9599C297.74 72.5399 297.44 71.4199 295.82 71.4199C294.3 71.4199 293.04 72.4599 292.62 73.9199C292.5 74.3199 292.46 74.7799 292.46 75.2599V79.9999H290.52ZM304.871 74.9399C304.871 71.7199 307.051 69.6399 309.931 69.6399C312.791 69.6399 314.311 71.7599 314.311 74.3799C314.311 74.6399 314.251 75.2199 314.251 75.2199H306.871C306.971 77.4399 308.551 78.5599 310.351 78.5599C312.091 78.5599 313.351 77.3799 313.351 77.3799L314.151 78.7999C314.151 78.7999 312.651 80.2399 310.231 80.2399C307.051 80.2399 304.871 77.9399 304.871 74.9399ZM306.931 73.7599H312.331C312.271 72.0199 311.191 71.1799 309.891 71.1799C308.411 71.1799 307.211 72.0999 306.931 73.7599ZM319.664 79.9999V69.8799H321.544V71.2199C321.544 71.6199 321.504 71.9599 321.504 71.9599H321.544C322.024 70.7799 323.444 69.6399 325.024 69.6399C326.724 69.6399 327.724 70.4199 328.064 71.9399H328.104C328.664 70.7199 330.064 69.6399 331.704 69.6399C333.984 69.6399 335.044 70.9399 335.044 73.5199V79.9999H333.104V73.9399C333.104 72.5199 332.824 71.3999 331.304 71.3999C329.884 71.3999 328.824 72.5999 328.464 73.9799C328.364 74.3999 328.324 74.8599 328.324 75.3799V79.9999H326.384V73.9399C326.384 72.6199 326.184 71.3999 324.624 71.3999C323.144 71.3999 322.104 72.6199 321.724 74.0599C321.624 74.4599 321.604 74.9199 321.604 75.3799V79.9999H319.664ZM340.126 77.1599C340.126 73.8199 344.526 73.6799 346.226 73.6799H346.666V73.4999C346.666 71.8399 345.726 71.2799 344.446 71.2799C342.886 71.2799 341.626 72.2599 341.626 72.2599L340.826 70.8399C340.826 70.8399 342.286 69.6399 344.606 69.6399C347.166 69.6399 348.606 71.0399 348.606 73.5999V79.9999H346.806V79.0399C346.806 78.5799 346.846 78.2399 346.846 78.2399H346.806C346.806 78.2399 345.986 80.2399 343.566 80.2399C341.826 80.2399 340.126 79.1799 340.126 77.1599ZM342.086 77.0599C342.086 77.8799 342.726 78.6799 343.986 78.6799C345.626 78.6799 346.686 76.9599 346.686 75.4599V75.1399H346.186C344.726 75.1399 342.086 75.2399 342.086 77.0599ZM354.874 76.2999V71.5799H353.554V70.0199H354.934V67.0999H356.814V70.0199H359.254V71.5799H356.814V76.0799C356.814 78.0999 358.234 78.3599 358.974 78.3599C359.254 78.3599 359.434 78.3199 359.434 78.3199V80.0399C359.434 80.0399 359.154 80.0799 358.754 80.0799C357.454 80.0799 354.874 79.6799 354.874 76.2999ZM364.602 67.8599V65.8799H366.562V67.8599H364.602ZM364.622 79.9999V69.8799H366.562V79.9999H364.622ZM371.882 74.9399C371.882 71.9399 374.122 69.6399 377.302 69.6399C379.842 69.6399 381.102 71.1199 381.102 71.1199L380.182 72.4799C380.182 72.4799 379.102 71.3199 377.382 71.3199C375.342 71.3199 373.862 72.8399 373.862 74.9199C373.862 76.9799 375.342 78.5599 377.442 78.5599C379.322 78.5599 380.562 77.1999 380.562 77.1999L381.342 78.6199C381.342 78.6199 379.942 80.2399 377.302 80.2399C374.122 80.2399 371.882 77.9799 371.882 74.9399ZM385.72 77.1599C385.72 73.8199 390.12 73.6799 391.82 73.6799H392.26V73.4999C392.26 71.8399 391.32 71.2799 390.04 71.2799C388.48 71.2799 387.22 72.2599 387.22 72.2599L386.42 70.8399C386.42 70.8399 387.88 69.6399 390.2 69.6399C392.76 69.6399 394.2 71.0399 394.2 73.5999V79.9999H392.4V79.0399C392.4 78.5799 392.44 78.2399 392.44 78.2399H392.4C392.4 78.2399 391.58 80.2399 389.16 80.2399C387.42 80.2399 385.72 79.1799 385.72 77.1599ZM387.68 77.0599C387.68 77.8799 388.32 78.6799 389.58 78.6799C391.22 78.6799 392.28 76.9599 392.28 75.4599V75.1399H391.78C390.32 75.1399 387.68 75.2399 387.68 77.0599ZM399.986 77.2399V65.8799H401.926V76.8999C401.926 78.1199 402.406 78.3399 403.006 78.3399C403.186 78.3399 403.346 78.3199 403.346 78.3199V80.0399C403.346 80.0399 403.046 80.0799 402.706 80.0799C401.606 80.0799 399.986 79.7799 399.986 77.2399ZM416.536 83.9999V69.8799H418.316V70.7399C418.316 71.1399 418.276 71.4799 418.276 71.4799H418.316C418.316 71.4799 419.176 69.6399 421.716 69.6399C424.436 69.6399 426.156 71.7999 426.156 74.9399C426.156 78.1599 424.216 80.2399 421.576 80.2399C419.356 80.2399 418.476 78.5799 418.476 78.5799H418.436C418.436 78.5799 418.476 78.9399 418.476 79.4599V83.9999H416.536ZM418.416 74.9799C418.416 76.7799 419.416 78.5799 421.276 78.5799C422.876 78.5799 424.196 77.2599 424.196 74.9599C424.196 72.7599 423.016 71.3399 421.336 71.3399C419.816 71.3399 418.416 72.3999 418.416 74.9799ZM431.528 79.9999V69.8799H433.408V71.6399C433.408 72.0599 433.368 72.3999 433.368 72.3999H433.408C433.868 70.9199 435.048 69.7599 436.608 69.7599C436.868 69.7599 437.108 69.7999 437.108 69.7999V71.7199C437.108 71.7199 436.848 71.6599 436.548 71.6599C435.308 71.6599 434.168 72.5399 433.708 74.0399C433.528 74.6199 433.468 75.2399 433.468 75.8599V79.9999H431.528ZM441.229 74.9199C441.229 71.8599 443.669 69.6399 446.689 69.6399C449.709 69.6399 452.149 71.8599 452.149 74.9199C452.149 77.9999 449.709 80.2399 446.689 80.2399C443.669 80.2399 441.229 77.9999 441.229 74.9199ZM443.209 74.9199C443.209 77.0399 444.789 78.5599 446.689 78.5599C448.609 78.5599 450.169 77.0399 450.169 74.9199C450.169 72.8199 448.609 71.3199 446.689 71.3199C444.789 71.3199 443.209 72.8199 443.209 74.9199ZM459.85 79.9999L456.07 69.8799H458.13L460.59 76.7199C460.79 77.2799 460.91 78.0999 460.93 78.0999H460.97C460.99 78.0999 461.13 77.2799 461.33 76.7199L463.79 69.8799H465.83L462.09 79.9999H459.85ZM469.789 74.9399C469.789 71.7199 471.969 69.6399 474.849 69.6399C477.709 69.6399 479.229 71.7599 479.229 74.3799C479.229 74.6399 479.169 75.2199 479.169 75.2199H471.789C471.889 77.4399 473.469 78.5599 475.269 78.5599C477.009 78.5599 478.269 77.3799 478.269 77.3799L479.069 78.7999C479.069 78.7999 477.569 80.2399 475.149 80.2399C471.969 80.2399 469.789 77.9399 469.789 74.9399ZM471.849 73.7599H477.249C477.189 72.0199 476.109 71.1799 474.809 71.1799C473.329 71.1799 472.129 72.0999 471.849 73.7599ZM483.923 74.9399C483.923 71.7199 485.823 69.6399 488.503 69.6399C490.843 69.6399 491.623 71.2399 491.623 71.2399H491.663C491.663 71.2399 491.623 70.9399 491.623 70.5599V65.8799H493.563V79.9999H491.723V79.0399C491.723 78.6399 491.743 78.3599 491.743 78.3599H491.703C491.703 78.3599 490.883 80.2399 488.383 80.2399C485.643 80.2399 483.923 78.0799 483.923 74.9399ZM485.903 74.9399C485.903 77.1399 487.083 78.5599 488.763 78.5599C490.263 78.5599 491.683 77.4999 491.683 74.9199C491.683 73.1199 490.743 71.3199 488.823 71.3199C487.223 71.3199 485.903 72.6399 485.903 74.9399Z" fill="white"/>
</g>
<defs>
<clipPath id="clip0_103_21">
<rect width="248" height="19" fill="white" transform="translate(246 65)"/>
</clipPath>
</defs>
</svg>
